<mxfile host="app.diagrams.net" modified="2024-02-24T12:06:25.942Z" agent="Mozilla/5.0 (Windows NT 10.0; Win64; x64) AppleWebKit/537.36 (KHTML, like Gecko) Chrome/111.0.0.0 Safari/537.36" version="23.1.6" etag="gaYNuFMDwJEsN9E60r6i" type="github">
  <diagram name="第 1 页" id="TsCNJD8BXKbPv_M2inxQ">
    <mxGraphModel>
      <root>
        <mxCell id="0" />
        <mxCell id="1" parent="0" />
      </root>
    </mxGraphModel>
  </diagram>
</mxfile>
